<svg width="30" height="30" viewBox="0 0 30 30" fill="none" xmlns="http://www.w3.org/2000/svg">
<path fill-rule="evenodd" clip-rule="evenodd" d="M10.5 6C10.5 4.80653 10.9741 3.66193 11.818 2.81802C12.6619 1.97411 13.8065 1.5 15 1.5C16.1935 1.5 17.3381 1.97411 18.182 2.81802C19.0259 3.66193 19.5 4.80653 19.5 6V12C19.5 13.1935 19.0259 14.3381 18.182 15.182C17.3381 16.0259 16.1935 16.5 15 16.5C13.8065 16.5 12.6619 16.0259 11.818 15.182C10.9741 14.3381 10.5 13.1935 10.5 12V6ZM16.5 22.395C18.9993 22.0339 21.2848 20.7844 22.9378 18.8752C24.5907 16.9661 25.5003 14.5253 25.5 12C25.5 11.6022 25.342 11.2206 25.0607 10.9393C24.7794 10.658 24.3978 10.5 24 10.5C23.6022 10.5 23.2206 10.658 22.9393 10.9393C22.658 11.2206 22.5 11.6022 22.5 12C22.5 13.9891 21.7098 15.8968 20.3033 17.3033C18.8968 18.7098 16.9891 19.5 15 19.5C13.0109 19.5 11.1032 18.7098 9.6967 17.3033C8.29018 15.8968 7.5 13.9891 7.5 12C7.5 11.6022 7.34196 11.2206 7.06066 10.9393C6.77936 10.658 6.39783 10.5 6 10.5C5.60218 10.5 5.22064 10.658 4.93934 10.9393C4.65804 11.2206 4.5 11.6022 4.5 12C4.49966 14.5253 5.4093 16.9661 7.06223 18.8752C8.71516 20.7844 11.0007 22.0339 13.5 22.395V25.5H9C8.60218 25.5 8.22064 25.658 7.93934 25.9393C7.65804 26.2206 7.5 26.6022 7.5 27C7.5 27.3978 7.65804 27.7794 7.93934 28.0607C8.22064 28.342 8.60218 28.5 9 28.5H21C21.3978 28.5 21.7794 28.342 22.0607 28.0607C22.342 27.7794 22.5 27.3978 22.5 27C22.5 26.6022 22.342 26.2206 22.0607 25.9393C21.7794 25.658 21.3978 25.5 21 25.5H16.5V22.395Z" fill="white"/>
</svg>
