<svg width="50" height="50" viewBox="0 0 50 50" fill="none" xmlns="http://www.w3.org/2000/svg">
<path fill-rule="evenodd" clip-rule="evenodd" d="M17.5 10C17.5 8.01088 18.2902 6.10322 19.6967 4.6967C21.1032 3.29018 23.0109 2.5 25 2.5C26.9891 2.5 28.8968 3.29018 30.3033 4.6967C31.7098 6.10322 32.5 8.01088 32.5 10V20C32.5 21.9891 31.7098 23.8968 30.3033 25.3033C28.8968 26.7098 26.9891 27.5 25 27.5C23.0109 27.5 21.1032 26.7098 19.6967 25.3033C18.2902 23.8968 17.5 21.9891 17.5 20V10ZM27.5 37.325C31.6655 36.7232 35.4747 34.6406 38.2296 31.4587C40.9845 28.2768 42.5006 24.2088 42.5 20C42.5 19.337 42.2366 18.7011 41.7678 18.2322C41.2989 17.7634 40.663 17.5 40 17.5C39.337 17.5 38.7011 17.7634 38.2322 18.2322C37.7634 18.7011 37.5 19.337 37.5 20C37.5 23.3152 36.183 26.4946 33.8388 28.8388C31.4946 31.183 28.3152 32.5 25 32.5C21.6848 32.5 18.5054 31.183 16.1612 28.8388C13.817 26.4946 12.5 23.3152 12.5 20C12.5 19.337 12.2366 18.7011 11.7678 18.2322C11.2989 17.7634 10.663 17.5 10 17.5C9.33696 17.5 8.70107 17.7634 8.23223 18.2322C7.76339 18.7011 7.5 19.337 7.5 20C7.49944 24.2088 9.0155 28.2768 11.7704 31.4587C14.5253 34.6406 18.3345 36.7232 22.5 37.325V42.5H15C14.337 42.5 13.7011 42.7634 13.2322 43.2322C12.7634 43.7011 12.5 44.337 12.5 45C12.5 45.663 12.7634 46.2989 13.2322 46.7678C13.7011 47.2366 14.337 47.5 15 47.5H35C35.663 47.5 36.2989 47.2366 36.7678 46.7678C37.2366 46.2989 37.5 45.663 37.5 45C37.5 44.337 37.2366 43.7011 36.7678 43.2322C36.2989 42.7634 35.663 42.5 35 42.5H27.5V37.325Z" fill="white"/>
</svg>
