<svg width="49" height="48" viewBox="0 0 49 48" fill="none" xmlns="http://www.w3.org/2000/svg">
<path d="M45.1803 21.2862L45.1653 21.2796L5.12656 4.67273C4.78979 4.53178 4.42334 4.4765 4.05997 4.51184C3.69661 4.54718 3.34767 4.67203 3.04438 4.87523C2.72393 5.08521 2.46072 5.37155 2.27841 5.7085C2.09611 6.04545 2.00044 6.42244 2 6.80555V17.4265C2.00018 17.9502 2.18306 18.4575 2.51711 18.8609C2.85117 19.2642 3.31547 19.5384 3.83 19.6362L25.6672 23.674C25.753 23.6903 25.8304 23.736 25.8861 23.8032C25.9419 23.8705 25.9723 23.9551 25.9723 24.0424C25.9723 24.1298 25.9419 24.2144 25.8861 24.2816C25.8304 24.3489 25.753 24.3946 25.6672 24.4109L3.83094 28.4487C3.31655 28.5462 2.85227 28.82 2.51807 29.223C2.18386 29.626 2.00066 30.1329 2 30.6565V41.2793C1.99975 41.6451 2.09033 42.0053 2.26361 42.3275C2.4369 42.6497 2.68746 42.9238 2.99281 43.1252C3.36012 43.3693 3.79119 43.4997 4.23219 43.5002C4.53877 43.5 4.84221 43.4385 5.12469 43.3193L45.1625 26.8071L45.1803 26.7987C45.7193 26.5671 46.1785 26.1825 46.5011 25.6926C46.8238 25.2028 46.9958 24.629 46.9958 24.0424C46.9958 23.4558 46.8238 22.8821 46.5011 22.3922C46.1785 21.9023 45.7193 21.5178 45.1803 21.2862Z" fill="white"/>
</svg>
